name D:\school\WTK\thesis\model\3dpredictsim\Results\MidTarsalJoint\Fal_s1_bCst_PF_Natali2010_ls150_MT_k500_MTP_T5_ig24.mot
datacolumns 128
datarows 4
range 0.00000000 0.03400991
endheader
time	pelvis_tilt	pelvis_list	pelvis_rotation	pelvis_tx	pelvis_ty	pelvis_tz	hip_flexion_l	hip_adduction_l	hip_rotation_l	hip_flexion_r	hip_adduction_r	hip_rotation_r	knee_angle_l	knee_angle_r	ankle_angle_l	ankle_angle_r	subtalar_angle_l	subtalar_angle_r	tmt_angle_l	tmt_angle_r	mtp_angle_l	mtp_angle_r	lumbar_extension	lumbar_bending	lumbar_rotation	arm_flex_l	arm_add_l	arm_rot_l	arm_flex_r	arm_add_r	arm_rot_r	elbow_flex_l	elbow_flex_r	pro_sup_l	pro_sup_r	glut_med1_l/activation	glut_med2_l/activation	glut_med3_l/activation	glut_min1_l/activation	glut_min2_l/activation	glut_min3_l/activation	semimem_l/activation	semiten_l/activation	bifemlh_l/activation	bifemsh_l/activation	sar_l/activation	add_long_l/activation	add_brev_l/activation	add_mag1_l/activation	add_mag2_l/activation	add_mag3_l/activation	tfl_l/activation	pect_l/activation	grac_l/activation	glut_max1_l/activation	glut_max2_l/activation	glut_max3_l/activation	iliacus_l/activation	psoas_l/activation	quad_fem_l/activation	gem_l/activation	peri_l/activation	rect_fem_l/activation	vas_med_l/activation	vas_int_l/activation	vas_lat_l/activation	med_gas_l/activation	lat_gas_l/activation	soleus_l/activation	tib_post_l/activation	flex_dig_l/activation	flex_hal_l/activation	tib_ant_l/activation	per_brev_l/activation	per_long_l/activation	per_tert_l/activation	ext_dig_l/activation	ext_hal_l/activation	ercspn_l/activation	intobl_l/activation	extobl_l/activation	glut_med1_r/activation	glut_med2_r/activation	glut_med3_r/activation	glut_min1_r/activation	glut_min2_r/activation	glut_min3_r/activation	semimem_r/activation	semiten_r/activation	bifemlh_r/activation	bifemsh_r/activation	sar_r/activation	add_long_r/activation	add_brev_r/activation	add_mag1_r/activation	add_mag2_r/activation	add_mag3_r/activation	tfl_r/activation	pect_r/activation	grac_r/activation	glut_max1_r/activation	glut_max2_r/activation	glut_max3_r/activation	iliacus_r/activation	psoas_r/activation	quad_fem_r/activation	gem_r/activation	peri_r/activation	rect_fem_r/activation	vas_med_r/activation	vas_int_r/activation	vas_lat_r/activation	med_gas_r/activation	lat_gas_r/activation	soleus_r/activation	tib_post_r/activation	flex_dig_r/activation	flex_hal_r/activation	tib_ant_r/activation	per_brev_r/activation	per_long_r/activation	per_tert_r/activation	ext_dig_r/activation	ext_hal_r/activation	ercspn_r/activation	intobl_r/activation	extobl_r/activation	
          0.00000000	         -2.93010370	         -2.13336557	          5.20917949	          0.00000000	          0.91927670	         -0.00233993	        -17.07953790	         -0.90285244	          6.72728886	         28.98936155	          3.38661379	         -2.58645843	         -6.80723133	         -9.69511228	         -0.85163277	          6.43976680	          7.37419908	         -5.17089490	          2.96446936	         -0.10395716	         15.93875495	          0.58002754	         -2.20268926	          0.35375897	         -2.14250506	          5.03521934	        -13.45234666	         15.87462324	         -5.09311697	        -13.46003784	          6.39843384	         35.28107482	         16.71913998	         86.51662706	         86.51662706	          0.27335660	          0.09991547	          0.07501160	          0.30135924	          0.19829048	          0.11426403	          0.05000205	          0.05000046	          0.05000025	          0.05683552	          0.11132408	          0.07223011	          0.05006194	          0.05000178	          0.05000336	          0.05000098	          0.31979459	          0.07097991	          0.05000601	          0.05000312	          0.05000176	          0.05000152	          0.43328895	          0.67806448	          0.05000025	          0.05000072	          0.05741403	          0.24454276	          0.05000069	          0.05000071	          0.05000066	          0.28786716	          0.39162489	          0.33072449	          0.28833729	          0.29058690	          0.37820074	          0.05000007	          0.05944683	          0.10861362	          0.05000049	          0.05000012	          0.05000040	          0.05000003	          0.05000009	          0.05000013	          0.05944715	          0.05944715	          0.05000032	          0.05944724	          0.05944722	          0.05943708	          0.22331952	          0.08365016	          0.14068803	          0.06298702	          0.05000034	          0.15308341	          0.27164676	          0.11385611	          0.18765700	          0.11359151	          0.05000020	          0.05006637	          0.14265421	          0.05000164	          0.05000947	          0.16483064	          0.05000145	          0.05000026	          0.22892989	          0.28374645	          0.12861497	          0.05000027	          0.10228726	          0.10049869	          0.09104195	          0.06469789	          0.06113675	          0.05947823	          0.05000005	          0.05000080	          0.05000040	          0.47867349	          0.26401738	          0.16825408	          0.14846200	          0.47058088	          0.22750554	          0.05944723	          0.11894896	          0.09993830	
          0.01133664	         -2.92835456	         -2.22088833	          5.49953996	          0.01705811	          0.91839444	         -0.00213434	        -16.98597074	         -1.20285595	          6.52022749	         28.39056761	          3.75126642	         -2.34089562	         -8.67593464	        -10.11985529	         -1.41851026	          5.78266927	          8.36788402	         -5.52522810	          2.38202356	         -0.15351294	         17.45222054	          0.58304490	         -2.00106393	          0.55077617	         -2.21186628	          4.76350004	        -13.45792643	         16.21652886	         -5.97139383	        -13.45471482	          6.19203990	         36.45823010	         16.32054303	         86.51662706	         86.51662706	          0.22991557	          0.08403721	          0.06309103	          0.25346823	          0.16677878	          0.09610557	          0.05000430	          0.05000109	          0.05000160	          0.05000027	          0.09363308	          0.16066800	          0.05441204	          0.05944796	          0.05944525	          0.05944770	          0.26897391	          0.05970787	          0.05000929	          0.05001089	          0.05000818	          0.05002587	          0.36443192	          0.62809896	          0.05807651	          0.05944761	          0.05944737	          0.20568106	          0.14514895	          0.14654864	          0.13612410	          0.24212006	          0.32938894	          0.28761035	          0.25536145	          0.24440901	          0.31810702	          0.05000006	          0.05000019	          0.12128872	          0.05000017	          0.05000005	          0.05000028	          0.05863946	          0.06918940	          0.05944719	          0.05000002	          0.05000007	          0.10387437	          0.05000009	          0.05000010	          0.05000011	          0.18783038	          0.07035679	          0.11833030	          0.05297746	          0.05945130	          0.12875628	          0.30346821	          0.32731483	          0.21022963	          0.11498331	          0.05000058	          0.07068998	          0.13266983	          0.05001054	          0.07041749	          0.14465977	          0.05000043	          0.07067921	          0.55090976	          0.23865426	          0.10817590	          0.05949752	          0.11559405	          0.11471294	          0.09984405	          0.06561390	          0.06990037	          0.05507004	          0.05944731	          0.05029997	          0.05944665	          0.48717644	          0.32432032	          0.20758412	          0.12486891	          0.41131270	          0.19135105	          0.05000004	          0.10004590	          0.08405637	
          0.02267327	         -2.92227669	         -2.31228847	          5.75919034	          0.03442140	          0.91754857	         -0.00194907	        -16.82917310	         -1.50406146	          6.30098380	         27.67937791	          4.01128607	         -2.07198860	        -10.64386439	        -10.72568696	         -2.14189203	          5.22691329	          9.32580501	         -5.89781179	          1.70636882	         -0.21240636	         18.98881809	          0.56551987	         -1.77871262	          0.76003967	         -2.26893173	          4.41202563	        -13.45915940	         16.48255939	         -6.87920017	        -13.45816473	          6.03797331	         37.61455034	         15.97912463	         86.51662706	         86.51662706	          0.31973348	          0.07068228	          0.05306486	          0.32385375	          0.14027492	          0.08083282	          0.05000192	          0.05000030	          0.05000023	          0.05000053	          0.07875404	          0.13513522	          0.05000054	          0.05000102	          0.05000113	          0.05000095	          0.29239811	          0.05023469	          0.05000121	          0.05000410	          0.05000193	          0.05000090	          0.30651768	          0.59759628	          0.05000026	          0.05000148	          0.05000063	          0.17299485	          0.12208251	          0.12325977	          0.11449184	          0.20364296	          0.27704332	          0.24190406	          0.21478022	          0.20556850	          0.26755461	          0.05000003	          0.08641594	          0.14514677	          0.05000020	          0.05000008	          0.05000020	          0.05083120	          0.05819401	          0.05000012	          0.23940835	          0.23538822	          0.30113026	          0.36318218	          0.23384453	          0.23790796	          0.15799751	          0.05918012	          0.09952649	          0.05946523	          0.05000381	          0.10829474	          0.25524195	          0.27529896	          0.17682081	          0.12875752	          0.05000075	          0.05945752	          0.11158697	          0.05000055	          0.05922736	          0.13178613	          0.05061343	          0.05944714	          0.46336066	          0.20072810	          0.19779507	          0.05004238	          0.09722442	          0.09648335	          0.08397734	          0.05518681	          0.05879214	          0.05000060	          0.05000020	          0.05000083	          0.05000103	          0.52266567	          0.30053367	          0.17459551	          0.35415428	          0.49321992	          0.16094244	          0.05972960	          0.12015739	          0.07069836	
          0.03400991	         -2.91402802	         -2.39973786	          5.98373089	          0.05187780	          0.91677168	         -0.00173781	        -16.56844387	         -1.79964146	          6.09225899	         26.92234784	          4.24170024	         -1.80092427	        -12.75682007	        -11.29153541	         -3.03999417	          4.76278078	         10.25778025	         -6.25239791	          0.98921154	         -0.21129783	         20.46141774	          0.58675699	         -1.55883944	          0.97252306	         -2.31611088	          4.01681965	        -13.46513889	         16.69664437	         -7.76867443	        -13.46279138	          5.93905692	         38.73019493	         15.66880692	         86.51662706	         86.51662706	          0.28225830	          0.05944969	          0.05000049	          0.27238830	          0.11798291	          0.06798716	          0.05000599	          0.05000055	          0.05000049	          0.05000032	          0.06623901	          0.13934439	          0.08566036	          0.05005439	          0.05003390	          0.05001938	          0.25208000	          0.05060227	          0.05000352	          0.05001184	          0.05000774	          0.05000768	          0.25780674	          0.54492987	          0.05000128	          0.05000328	          0.05000049	          0.14550300	          0.13794028	          0.13275313	          0.11879096	          0.17128055	          0.23301632	          0.20346129	          0.18064797	          0.17290028	          0.22503569	          0.05001468	          0.07268352	          0.14803200	          0.05000134	          0.10065316	          0.05000199	          0.06934813	          0.05000004	          0.05000007	          0.33501452	          0.33242013	          0.35207939	          0.30546660	          0.20533918	          0.20012854	          0.13289092	          0.07358741	          0.08634878	          0.05001664	          0.05000280	          0.09108487	          0.21467961	          0.23154938	          0.14872150	          0.16091831	          0.05000085	          0.05000920	          0.09385418	          0.20823376	          0.16510528	          0.15635299	          0.05000014	          0.05000021	          0.38972464	          0.16882902	          0.16636230	          0.05000015	          0.08554301	          0.09957388	          0.07063791	          0.05000009	          0.05000021	          0.05000004	          0.05000032	          0.05000043	          0.05000055	          0.60358057	          0.34147148	          0.18600447	          0.50737832	          0.53152301	          0.27836322	          0.08310918	          0.10106231	          0.05946317	
